<?xml version="1.0" encoding="UTF-8" standalone="no"?>
<!-- Generator: Adobe Illustrator 14.0.0, SVG Export Plug-In . SVG Version: 6.00 Build 43363)  -->

<svg
   xmlns:dc="http://purl.org/dc/elements/1.1/"
   xmlns:cc="http://creativecommons.org/ns#"
   xmlns:rdf="http://www.w3.org/1999/02/22-rdf-syntax-ns#"
   xmlns:svg="http://www.w3.org/2000/svg"
   xmlns="http://www.w3.org/2000/svg"
   xmlns:xlink="http://www.w3.org/1999/xlink"
   xmlns:sodipodi="http://sodipodi.sourceforge.net/DTD/sodipodi-0.dtd"
   xmlns:inkscape="http://www.inkscape.org/namespaces/inkscape"
   version="1.1"
   id="Ebene_1"
   x="0px"
   y="0px"
   width="601px"
   height="601px"
   viewBox="0 0 601 601"
   enable-background="new 0 0 601 601"
   xml:space="preserve"
   sodipodi:docname="Menarini_2.svg"
   inkscape:version="0.92.3 (2405546, 2018-03-11)"><metadata
   id="metadata3793"><rdf:RDF><cc:Work
       rdf:about=""><dc:format>image/svg+xml</dc:format><dc:type
         rdf:resource="http://purl.org/dc/dcmitype/StillImage" /><dc:title /></cc:Work></rdf:RDF></metadata><defs
   id="defs3791" /><sodipodi:namedview
   pagecolor="#ffffff"
   bordercolor="#666666"
   borderopacity="1"
   objecttolerance="10"
   gridtolerance="10"
   guidetolerance="10"
   inkscape:pageopacity="0"
   inkscape:pageshadow="2"
   inkscape:window-width="1920"
   inkscape:window-height="1017"
   id="namedview3789"
   showgrid="false"
   inkscape:zoom="1.4109817"
   inkscape:cx="302.04156"
   inkscape:cy="292.97639"
   inkscape:window-x="-8"
   inkscape:window-y="-8"
   inkscape:window-maximized="1"
   inkscape:current-layer="Ebene_1" />
<rect
   x="-0.109"
   fill="#FFFFFF"
   width="601"
   height="601.02"
   id="rect3754" />
<g
   id="g3764">
	<defs
   id="defs3757">
		<rect
   id="SVGID_1_"
   x="-0.109"
   width="601"
   height="601.02" />
	</defs>
	<clipPath
   id="SVGID_2_">
		<use
   xlink:href="#SVGID_1_"
   overflow="visible"
   id="use3759" />
	</clipPath>
	<path
   clip-path="url(#SVGID_2_)"
   fill-rule="evenodd"
   clip-rule="evenodd"
   d="M592.079,592.207H8.665V8.774h583.414 M600.891,0   v601.02H-0.128V0H600.891z"
   id="path3762" />
</g>
<polyline
   points="4.029,4.176 300.362,444.242 596.753,4.176 "
   id="polyline3766" />
<polygon
   fill="none"
   stroke="#000000"
   stroke-width="0.111"
   stroke-miterlimit="3.864"
   points="4.029,4.176 300.362,444.242   596.753,4.176 "
   id="polygon3768" />








<polyline
   fill="#E7473C"
   points="88.49,601.02 88.49,275.664 300.381,592.781 512.234,277.158 512.234,601.02 "
   id="polyline3786"
   style="fill:#e5342c;fill-opacity:1" />
<path
   style="fill:none;stroke:#000000;stroke-width:9;stroke-linecap:butt;stroke-linejoin:miter;stroke-opacity:1;stroke-miterlimit:4;stroke-dasharray:none"
   d="M 88.49,601.02 V 275.664 L 300.381,592.781 512.234,277.158 v 323.862 0"
   id="path3795"
   inkscape:connector-curvature="0" /><path
   style="fill:none;stroke:#000000;stroke-width:9;stroke-linecap:butt;stroke-linejoin:miter;stroke-miterlimit:4;stroke-dasharray:none;stroke-opacity:1"
   d="m 86.61618,597.93274 h 423.744 v 0"
   id="path4602"
   inkscape:connector-curvature="0" /><polyline
   points="318.791,363.324 318.791,372.52 288.964,389.416 288.964,389.645 318.791,388.803 318.791,399.031   283.236,399.031 283.236,382.596 309.653,368.113 309.653,367.807 283.236,353.592 283.236,336.811 318.791,336.811   318.791,347.041 288.849,346.16 288.849,346.543 "
   id="polyline3770-1"
   transform="matrix(1,0,0,0.84068281,0,6.1008009)"
   style="fill:#ffffff" /><polyline
   points="297.93,317.885 297.93,292.943 303.542,292.943 303.542,317.885 312.968,317.885 312.968,291.372   318.771,291.372 318.771,328.152 283.217,328.152 283.217,291.563 289.06,291.563 289.06,317.885 "
   id="polyline3772-0"
   transform="matrix(1,0,0,0.84068281,0,6.1008009)"
   style="fill:#ffffff" /><polyline
   points="283.236,244.247 283.236,234.017 318.771,234.017 318.771,250.99 289.079,273.671 289.079,274.016   318.771,273.211 318.771,283.441 283.236,283.441 283.236,266.507 312.968,243.71 312.968,243.404 "
   id="polyline3774-7"
   transform="matrix(1,0,0,0.84068281,0,6.1008009)"
   style="fill:#ffffff" /><path
   d="m 306.876,169.91709 v 15.46016 l -18.429,-7.66619 v -0.0967 m 23.601,-9.62918 6.724,-2.93147 v -8.7288 l -35.554,15.2029 v 12.65816 l 35.554,14.88093 v -8.92217 l -6.724,-2.80199 z"
   id="path3776-5"
   inkscape:connector-curvature="0"
   style="fill:#ffffff;stroke-width:0.91688758" /><path
   d="m 301.225,132.90856 c 0,-6.37742 -1.016,-7.92344 -6.245,-7.92344 -5.019,0 -5.919,1.1593 -5.919,7.31142 V 144.246 h 12.165 m 5.803,8.5e-4 h 11.762 v 8.63212 h -35.536 v -22.90103 c 0.153,-9.79143 2.586,-13.56022 10.632,-13.56022 5.249,0 9.099,0.32198 9.999,7.92344 h 0.192 c 0.44,-6.08738 3.064,-7.60146 8.046,-7.60146 h 6.666 v 8.63214 h -6.666 c -2.989,0 -5.058,1.57795 -5.096,5.70066 v 13.17435 z"
   id="path3778-0"
   inkscape:connector-curvature="0"
   style="fill:#ffffff;stroke-width:0.91688758" /><rect
   x="283.23599"
   y="100.79614"
   width="35.535"
   height="8.5993452"
   id="rect3780-9"
   style="fill:#ffffff;stroke-width:0.91688758" /><polyline
   points="283.236,64.098 283.236,53.869 318.771,53.869 318.771,70.841 289.079,93.523 289.079,93.868   318.771,93.063 318.771,103.292 283.236,103.292 283.236,86.358 312.968,63.523 312.968,63.217 "
   id="polyline3782-3"
   transform="matrix(1,0,0,0.84068281,0,6.1008009)"
   style="fill:#ffffff" /><rect
   x="283.23599"
   y="34.895874"
   width="35.535"
   height="8.6001844"
   id="rect3784-3"
   style="fill:#ffffff;stroke-width:0.91688758" /></svg>